<?xml version="1.0" encoding="utf-8"?>
<!-- Generator: Adobe Illustrator 19.1.1, SVG Export Plug-In . SVG Version: 6.00 Build 0)  -->
<svg version="1.1" id="Calque_1" xmlns="http://www.w3.org/2000/svg" xmlns:xlink="http://www.w3.org/1999/xlink" x="0px" y="0px" width="1200px" height="1200px"
	 viewBox="0 0 100 100" style="enable-background:new 0 0 100 100;" xml:space="preserve">
<style type="text/css">
	.st0{fill:#F7931E;}
</style>
<path class="st0" d="M75.9,26.1c0-7.3-2.5-13.4-7.5-18.4c-5-5-11.4-7.5-18.7-7.5c-4.7,0-8.9,1.1-12.8,3.3C33,5.8,29.6,8.8,27.4,13
	s-3.3,8.4-3.3,13.1c0,7.3,2.5,13.1,7.5,18.1c2.8,2.8,5.9,4.7,9.5,6.1h-5.3v6.7h17L33,99.8h29v-6.7H43.9l19.8-42.7h-4.2
	c3.3-1.1,6.7-3.3,9.2-6.1C73.4,39.5,75.9,33.4,75.9,26.1z M59.5,42.6c-3.1,1.7-6.4,2.5-9.8,2.5c-2.5,0-5-0.6-7.3-1.4
	c-2.2-0.8-4.2-2.2-6.1-4.2s-3.1-3.9-4.2-6.1c-0.8-2.2-1.4-4.7-1.4-7.3c0-3.6,0.8-7,2.5-9.8c1.7-2.8,3.9-5.3,7-7
	c3.1-1.7,6.1-2.5,9.5-2.5s6.7,0.8,9.5,2.5c3.1,1.7,5.3,4.2,7,7c1.7,2.8,2.5,6.1,2.5,9.8s-0.8,7-2.5,9.8
	C64.5,38.7,62.3,40.9,59.5,42.6z"/>
</svg>
